<?xml version="1.0" encoding="UTF-8" standalone="no"?>
<!DOCTYPE svg PUBLIC "-//W3C//DTD SVG 1.1//EN"
 "http://www.w3.org/Graphics/SVG/1.1/DTD/svg11.dtd">
<!-- Generated by graphviz version 2.43.0 (0)
 -->
<!-- Title: Tree Pages: 1 -->
<svg width="954pt" height="373pt"
 viewBox="0.00 0.00 954.00 373.00" xmlns="http://www.w3.org/2000/svg" xmlns:xlink="http://www.w3.org/1999/xlink">
<g id="graph0" class="graph" transform="scale(1 1) rotate(0) translate(4 369)">
<title>Tree</title>
<polygon fill="white" stroke="transparent" points="-4,4 -4,-369 950,-369 950,4 -4,4"/>
<!-- 0 -->
<g id="node1" class="node">
<title>0</title>
<polygon fill="none" stroke="black" points="533,-365 388,-365 388,-297 533,-297 533,-365"/>
<text text-anchor="middle" x="460.5" y="-349.8" font-family="Helvetica,sans-Serif" font-size="14.00">Credit_History &lt;= 0.5</text>
<text text-anchor="middle" x="460.5" y="-334.8" font-family="Helvetica,sans-Serif" font-size="14.00">gini = 0.423</text>
<text text-anchor="middle" x="460.5" y="-319.8" font-family="Helvetica,sans-Serif" font-size="14.00">samples = 491</text>
<text text-anchor="middle" x="460.5" y="-304.8" font-family="Helvetica,sans-Serif" font-size="14.00">value = [149, 342]</text>
</g>
<!-- 1 -->
<g id="node2" class="node">
<title>1</title>
<polygon fill="none" stroke="black" points="451.5,-261 299.5,-261 299.5,-193 451.5,-193 451.5,-261"/>
<text text-anchor="middle" x="375.5" y="-245.8" font-family="Helvetica,sans-Serif" font-size="14.00">LoanAmount &lt;= 129.0</text>
<text text-anchor="middle" x="375.5" y="-230.8" font-family="Helvetica,sans-Serif" font-size="14.00">gini = 0.157</text>
<text text-anchor="middle" x="375.5" y="-215.8" font-family="Helvetica,sans-Serif" font-size="14.00">samples = 70</text>
<text text-anchor="middle" x="375.5" y="-200.8" font-family="Helvetica,sans-Serif" font-size="14.00">value = [64, 6]</text>
</g>
<!-- 0&#45;&gt;1 -->
<g id="edge1" class="edge">
<title>0&#45;&gt;1</title>
<path fill="none" stroke="black" d="M432.9,-296.88C425.55,-288.07 417.53,-278.43 409.86,-269.24"/>
<polygon fill="black" stroke="black" points="412.34,-266.74 403.25,-261.3 406.96,-271.22 412.34,-266.74"/>
<text text-anchor="middle" x="400.99" y="-282.5" font-family="Helvetica,sans-Serif" font-size="14.00">True</text>
</g>
<!-- 8 -->
<g id="node9" class="node">
<title>8</title>
<polygon fill="none" stroke="black" points="607,-261 490,-261 490,-193 607,-193 607,-261"/>
<text text-anchor="middle" x="548.5" y="-245.8" font-family="Helvetica,sans-Serif" font-size="14.00">Married &lt;= 0.5</text>
<text text-anchor="middle" x="548.5" y="-230.8" font-family="Helvetica,sans-Serif" font-size="14.00">gini = 0.322</text>
<text text-anchor="middle" x="548.5" y="-215.8" font-family="Helvetica,sans-Serif" font-size="14.00">samples = 421</text>
<text text-anchor="middle" x="548.5" y="-200.8" font-family="Helvetica,sans-Serif" font-size="14.00">value = [85, 336]</text>
</g>
<!-- 0&#45;&gt;8 -->
<g id="edge8" class="edge">
<title>0&#45;&gt;8</title>
<path fill="none" stroke="black" d="M489.07,-296.88C496.76,-287.98 505.16,-278.24 513.16,-268.96"/>
<polygon fill="black" stroke="black" points="515.89,-271.16 519.77,-261.3 510.59,-266.58 515.89,-271.16"/>
<text text-anchor="middle" x="521.61" y="-282.53" font-family="Helvetica,sans-Serif" font-size="14.00">False</text>
</g>
<!-- 2 -->
<g id="node3" class="node">
<title>2</title>
<polygon fill="none" stroke="black" points="255.5,-157 73.5,-157 73.5,-89 255.5,-89 255.5,-157"/>
<text text-anchor="middle" x="164.5" y="-141.8" font-family="Helvetica,sans-Serif" font-size="14.00">ApplicantIncome &lt;= 2541.5</text>
<text text-anchor="middle" x="164.5" y="-126.8" font-family="Helvetica,sans-Serif" font-size="14.00">gini = 0.056</text>
<text text-anchor="middle" x="164.5" y="-111.8" font-family="Helvetica,sans-Serif" font-size="14.00">samples = 35</text>
<text text-anchor="middle" x="164.5" y="-96.8" font-family="Helvetica,sans-Serif" font-size="14.00">value = [34, 1]</text>
</g>
<!-- 1&#45;&gt;2 -->
<g id="edge2" class="edge">
<title>1&#45;&gt;2</title>
<path fill="none" stroke="black" d="M306.99,-192.88C286.25,-182.86 263.32,-171.77 242.04,-161.48"/>
<polygon fill="black" stroke="black" points="243.55,-158.33 233.02,-157.12 240.5,-164.63 243.55,-158.33"/>
</g>
<!-- 5 -->
<g id="node6" class="node">
<title>5</title>
<polygon fill="none" stroke="black" points="451.5,-157 299.5,-157 299.5,-89 451.5,-89 451.5,-157"/>
<text text-anchor="middle" x="375.5" y="-141.8" font-family="Helvetica,sans-Serif" font-size="14.00">LoanAmount &lt;= 131.0</text>
<text text-anchor="middle" x="375.5" y="-126.8" font-family="Helvetica,sans-Serif" font-size="14.00">gini = 0.245</text>
<text text-anchor="middle" x="375.5" y="-111.8" font-family="Helvetica,sans-Serif" font-size="14.00">samples = 35</text>
<text text-anchor="middle" x="375.5" y="-96.8" font-family="Helvetica,sans-Serif" font-size="14.00">value = [30, 5]</text>
</g>
<!-- 1&#45;&gt;5 -->
<g id="edge5" class="edge">
<title>1&#45;&gt;5</title>
<path fill="none" stroke="black" d="M375.5,-192.88C375.5,-184.78 375.5,-175.98 375.5,-167.47"/>
<polygon fill="black" stroke="black" points="379,-167.3 375.5,-157.3 372,-167.3 379,-167.3"/>
</g>
<!-- 3 -->
<g id="node4" class="node">
<title>3</title>
<polygon fill="none" stroke="black" points="95,-53 0,-53 0,0 95,0 95,-53"/>
<text text-anchor="middle" x="47.5" y="-37.8" font-family="Helvetica,sans-Serif" font-size="14.00">gini = 0.198</text>
<text text-anchor="middle" x="47.5" y="-22.8" font-family="Helvetica,sans-Serif" font-size="14.00">samples = 9</text>
<text text-anchor="middle" x="47.5" y="-7.8" font-family="Helvetica,sans-Serif" font-size="14.00">value = [8, 1]</text>
</g>
<!-- 2&#45;&gt;3 -->
<g id="edge3" class="edge">
<title>2&#45;&gt;3</title>
<path fill="none" stroke="black" d="M123.58,-88.95C111.8,-79.43 98.97,-69.07 87.26,-59.62"/>
<polygon fill="black" stroke="black" points="89.34,-56.8 79.36,-53.24 84.94,-62.24 89.34,-56.8"/>
</g>
<!-- 4 -->
<g id="node5" class="node">
<title>4</title>
<polygon fill="none" stroke="black" points="215.5,-53 113.5,-53 113.5,0 215.5,0 215.5,-53"/>
<text text-anchor="middle" x="164.5" y="-37.8" font-family="Helvetica,sans-Serif" font-size="14.00">gini = 0.0</text>
<text text-anchor="middle" x="164.5" y="-22.8" font-family="Helvetica,sans-Serif" font-size="14.00">samples = 26</text>
<text text-anchor="middle" x="164.5" y="-7.8" font-family="Helvetica,sans-Serif" font-size="14.00">value = [26, 0]</text>
</g>
<!-- 2&#45;&gt;4 -->
<g id="edge4" class="edge">
<title>2&#45;&gt;4</title>
<path fill="none" stroke="black" d="M164.5,-88.95C164.5,-80.72 164.5,-71.85 164.5,-63.48"/>
<polygon fill="black" stroke="black" points="168,-63.24 164.5,-53.24 161,-63.24 168,-63.24"/>
</g>
<!-- 6 -->
<g id="node7" class="node">
<title>6</title>
<polygon fill="none" stroke="black" points="329,-53 234,-53 234,0 329,0 329,-53"/>
<text text-anchor="middle" x="281.5" y="-37.8" font-family="Helvetica,sans-Serif" font-size="14.00">gini = 0.0</text>
<text text-anchor="middle" x="281.5" y="-22.8" font-family="Helvetica,sans-Serif" font-size="14.00">samples = 1</text>
<text text-anchor="middle" x="281.5" y="-7.8" font-family="Helvetica,sans-Serif" font-size="14.00">value = [0, 1]</text>
</g>
<!-- 5&#45;&gt;6 -->
<g id="edge6" class="edge">
<title>5&#45;&gt;6</title>
<path fill="none" stroke="black" d="M342.62,-88.95C333.43,-79.71 323.45,-69.67 314.26,-60.44"/>
<polygon fill="black" stroke="black" points="316.63,-57.86 307.1,-53.24 311.67,-62.79 316.63,-57.86"/>
</g>
<!-- 7 -->
<g id="node8" class="node">
<title>7</title>
<polygon fill="none" stroke="black" points="449.5,-53 347.5,-53 347.5,0 449.5,0 449.5,-53"/>
<text text-anchor="middle" x="398.5" y="-37.8" font-family="Helvetica,sans-Serif" font-size="14.00">gini = 0.208</text>
<text text-anchor="middle" x="398.5" y="-22.8" font-family="Helvetica,sans-Serif" font-size="14.00">samples = 34</text>
<text text-anchor="middle" x="398.5" y="-7.8" font-family="Helvetica,sans-Serif" font-size="14.00">value = [30, 4]</text>
</g>
<!-- 5&#45;&gt;7 -->
<g id="edge7" class="edge">
<title>5&#45;&gt;7</title>
<path fill="none" stroke="black" d="M383.54,-88.95C385.57,-80.62 387.75,-71.65 389.81,-63.2"/>
<polygon fill="black" stroke="black" points="393.27,-63.78 392.24,-53.24 386.47,-62.13 393.27,-63.78"/>
</g>
<!-- 9 -->
<g id="node10" class="node">
<title>9</title>
<polygon fill="none" stroke="black" points="624.5,-157 472.5,-157 472.5,-89 624.5,-89 624.5,-157"/>
<text text-anchor="middle" x="548.5" y="-141.8" font-family="Helvetica,sans-Serif" font-size="14.00">LoanAmount &lt;= 302.0</text>
<text text-anchor="middle" x="548.5" y="-126.8" font-family="Helvetica,sans-Serif" font-size="14.00">gini = 0.4</text>
<text text-anchor="middle" x="548.5" y="-111.8" font-family="Helvetica,sans-Serif" font-size="14.00">samples = 152</text>
<text text-anchor="middle" x="548.5" y="-96.8" font-family="Helvetica,sans-Serif" font-size="14.00">value = [42, 110]</text>
</g>
<!-- 8&#45;&gt;9 -->
<g id="edge9" class="edge">
<title>8&#45;&gt;9</title>
<path fill="none" stroke="black" d="M548.5,-192.88C548.5,-184.78 548.5,-175.98 548.5,-167.47"/>
<polygon fill="black" stroke="black" points="552,-167.3 548.5,-157.3 545,-167.3 552,-167.3"/>
</g>
<!-- 12 -->
<g id="node13" class="node">
<title>12</title>
<polygon fill="none" stroke="black" points="851,-157 676,-157 676,-89 851,-89 851,-157"/>
<text text-anchor="middle" x="763.5" y="-141.8" font-family="Helvetica,sans-Serif" font-size="14.00">ApplicantIncome &lt;= 180.0</text>
<text text-anchor="middle" x="763.5" y="-126.8" font-family="Helvetica,sans-Serif" font-size="14.00">gini = 0.269</text>
<text text-anchor="middle" x="763.5" y="-111.8" font-family="Helvetica,sans-Serif" font-size="14.00">samples = 269</text>
<text text-anchor="middle" x="763.5" y="-96.8" font-family="Helvetica,sans-Serif" font-size="14.00">value = [43, 226]</text>
</g>
<!-- 8&#45;&gt;12 -->
<g id="edge12" class="edge">
<title>8&#45;&gt;12</title>
<path fill="none" stroke="black" d="M607.25,-198.13C631.06,-186.83 658.91,-173.62 684.46,-161.5"/>
<polygon fill="black" stroke="black" points="686.22,-164.54 693.75,-157.09 683.22,-158.21 686.22,-164.54"/>
</g>
<!-- 10 -->
<g id="node11" class="node">
<title>10</title>
<polygon fill="none" stroke="black" points="585,-53 468,-53 468,0 585,0 585,-53"/>
<text text-anchor="middle" x="526.5" y="-37.8" font-family="Helvetica,sans-Serif" font-size="14.00">gini = 0.38</text>
<text text-anchor="middle" x="526.5" y="-22.8" font-family="Helvetica,sans-Serif" font-size="14.00">samples = 145</text>
<text text-anchor="middle" x="526.5" y="-7.8" font-family="Helvetica,sans-Serif" font-size="14.00">value = [37, 108]</text>
</g>
<!-- 9&#45;&gt;10 -->
<g id="edge10" class="edge">
<title>9&#45;&gt;10</title>
<path fill="none" stroke="black" d="M540.81,-88.95C538.87,-80.62 536.78,-71.65 534.81,-63.2"/>
<polygon fill="black" stroke="black" points="538.17,-62.18 532.49,-53.24 531.35,-63.77 538.17,-62.18"/>
</g>
<!-- 11 -->
<g id="node12" class="node">
<title>11</title>
<polygon fill="none" stroke="black" points="698,-53 603,-53 603,0 698,0 698,-53"/>
<text text-anchor="middle" x="650.5" y="-37.8" font-family="Helvetica,sans-Serif" font-size="14.00">gini = 0.408</text>
<text text-anchor="middle" x="650.5" y="-22.8" font-family="Helvetica,sans-Serif" font-size="14.00">samples = 7</text>
<text text-anchor="middle" x="650.5" y="-7.8" font-family="Helvetica,sans-Serif" font-size="14.00">value = [5, 2]</text>
</g>
<!-- 9&#45;&gt;11 -->
<g id="edge11" class="edge">
<title>9&#45;&gt;11</title>
<path fill="none" stroke="black" d="M584.17,-88.95C594.25,-79.62 605.2,-69.47 615.24,-60.16"/>
<polygon fill="black" stroke="black" points="617.76,-62.6 622.72,-53.24 613.01,-57.47 617.76,-62.6"/>
</g>
<!-- 13 -->
<g id="node14" class="node">
<title>13</title>
<polygon fill="none" stroke="black" points="811,-53 716,-53 716,0 811,0 811,-53"/>
<text text-anchor="middle" x="763.5" y="-37.8" font-family="Helvetica,sans-Serif" font-size="14.00">gini = 0.0</text>
<text text-anchor="middle" x="763.5" y="-22.8" font-family="Helvetica,sans-Serif" font-size="14.00">samples = 1</text>
<text text-anchor="middle" x="763.5" y="-7.8" font-family="Helvetica,sans-Serif" font-size="14.00">value = [1, 0]</text>
</g>
<!-- 12&#45;&gt;13 -->
<g id="edge13" class="edge">
<title>12&#45;&gt;13</title>
<path fill="none" stroke="black" d="M763.5,-88.95C763.5,-80.72 763.5,-71.85 763.5,-63.48"/>
<polygon fill="black" stroke="black" points="767,-63.24 763.5,-53.24 760,-63.24 767,-63.24"/>
</g>
<!-- 14 -->
<g id="node15" class="node">
<title>14</title>
<polygon fill="none" stroke="black" points="946,-53 829,-53 829,0 946,0 946,-53"/>
<text text-anchor="middle" x="887.5" y="-37.8" font-family="Helvetica,sans-Serif" font-size="14.00">gini = 0.264</text>
<text text-anchor="middle" x="887.5" y="-22.8" font-family="Helvetica,sans-Serif" font-size="14.00">samples = 268</text>
<text text-anchor="middle" x="887.5" y="-7.8" font-family="Helvetica,sans-Serif" font-size="14.00">value = [42, 226]</text>
</g>
<!-- 12&#45;&gt;14 -->
<g id="edge14" class="edge">
<title>12&#45;&gt;14</title>
<path fill="none" stroke="black" d="M806.87,-88.95C819.47,-79.34 833.21,-68.87 845.71,-59.34"/>
<polygon fill="black" stroke="black" points="847.9,-62.08 853.73,-53.24 843.65,-56.51 847.9,-62.08"/>
</g>
</g>
</svg>
